<svg id="Layer_1" data-name="Layer 1" xmlns="http://www.w3.org/2000/svg" viewBox="0 0 64.18 39.97"><defs><style>.cls-1,.cls-2,.cls-3{fill:#1d1d1b;}.cls-1,.cls-3{stroke:#1d1d1b;stroke-miterlimit:22.93;stroke-width:0.57px;}.cls-1,.cls-2{fill-rule:evenodd;}</style></defs><title>FIX TRADER LOGO</title><path class="cls-1" d="M346,310.52h1.64a2.32,2.32,0,0,1,2.32,2.32h0a2.33,2.33,0,0,1-.08.59,17.48,17.48,0,0,0-6.12,0,2,2,0,0,1-.08-.59h0A2.32,2.32,0,0,1,346,310.52Z" transform="translate(-302.9 -310.23)"/><path class="cls-2" d="M346.68,332.86l12.65,11.86a17.34,17.34,0,1,1-12.65-29.19Z" transform="translate(-302.9 -310.23)"/><path class="cls-1" d="M351.16,316.12h0a.65.65,0,0,1,.46.79l-.4,1.5a.66.66,0,0,1-.8.46h0a.64.64,0,0,1-.45-.79l.4-1.51A.64.64,0,0,1,351.16,316.12Z" transform="translate(-302.9 -310.23)"/><path class="cls-1" d="M355.34,317.85h0a.64.64,0,0,1,.24.88l-.78,1.35a.64.64,0,0,1-.88.24h0a.65.65,0,0,1-.24-.89l.78-1.34A.64.64,0,0,1,355.34,317.85Z" transform="translate(-302.9 -310.23)"/><path class="cls-1" d="M358.93,320.6h0a.64.64,0,0,1,0,.92l-1.1,1.1a.65.65,0,0,1-.91,0h0a.65.65,0,0,1,0-.91l1.1-1.11A.65.65,0,0,1,358.93,320.6Z" transform="translate(-302.9 -310.23)"/><path class="cls-1" d="M361.69,324.19h0a.64.64,0,0,1-.24.88l-1.35.78a.64.64,0,0,1-.88-.24h0a.64.64,0,0,1,.24-.88l1.35-.78A.65.65,0,0,1,361.69,324.19Z" transform="translate(-302.9 -310.23)"/><path class="cls-1" d="M363.42,328.38h0a.65.65,0,0,1-.46.79l-1.5.4a.65.65,0,0,1-.79-.46h0a.64.64,0,0,1,.45-.79l1.51-.4A.65.65,0,0,1,363.42,328.38Z" transform="translate(-302.9 -310.23)"/><rect class="cls-3" x="58.26" y="21.98" width="2.85" height="1.29" rx="0.65"/><path class="cls-1" d="M363.42,337.35h0a.65.65,0,0,1-.79.46l-1.51-.4a.65.65,0,0,1-.45-.8h0a.64.64,0,0,1,.79-.45l1.5.4A.65.65,0,0,1,363.42,337.35Z" transform="translate(-302.9 -310.23)"/><path class="cls-1" d="M361.69,341.53h0a.64.64,0,0,1-.88.24l-1.35-.78a.64.64,0,0,1-.24-.88h0a.64.64,0,0,1,.88-.24l1.35.78A.64.64,0,0,1,361.69,341.53Z" transform="translate(-302.9 -310.23)"/><path class="cls-1" d="M365.66,321.06l.83,1.42a2.34,2.34,0,0,1-.85,3.17h0a2.45,2.45,0,0,1-.56.23,16.73,16.73,0,0,0-1.3-2.79,17.33,17.33,0,0,0-1.76-2.51,2.19,2.19,0,0,1,.48-.37h0A2.31,2.31,0,0,1,365.66,321.06Z" transform="translate(-302.9 -310.23)"/><rect class="cls-3" x="13.42" y="6.94" width="28.85" height="2.58"/><rect class="cls-3" x="6.98" y="13.89" width="36.32" height="2.58"/><rect class="cls-3" x="0.28" y="20.85" width="43.02" height="2.58"/><rect class="cls-3" x="13.42" y="35.27" width="28.85" height="2.58"/><rect class="cls-3" x="6.98" y="28.32" width="36.32" height="2.58"/></svg>