<svg id="Layer_1" data-name="Layer 1" xmlns="http://www.w3.org/2000/svg" viewBox="0 0 149.02 39.97"><defs><style>.cls-1,.cls-2,.cls-3{fill:#1d1d1b;}.cls-1,.cls-3{stroke:#1d1d1b;stroke-miterlimit:22.93;stroke-width:0.57px;}.cls-1,.cls-2{fill-rule:evenodd;}</style></defs><title>FIX TRADER LOGOTYP</title><path class="cls-1" d="M346,310.52h1.64a2.32,2.32,0,0,1,2.32,2.32h0a2.33,2.33,0,0,1-.08.59,17.48,17.48,0,0,0-6.12,0,2,2,0,0,1-.08-.59h0A2.32,2.32,0,0,1,346,310.52Z" transform="translate(-302.9 -310.23)"/><path class="cls-2" d="M346.68,332.86l12.65,11.86a17.34,17.34,0,1,1-12.65-29.19Z" transform="translate(-302.9 -310.23)"/><path class="cls-1" d="M351.16,316.12h0a.65.65,0,0,1,.46.79l-.4,1.5a.66.66,0,0,1-.8.46h0a.64.64,0,0,1-.45-.79l.4-1.51A.64.64,0,0,1,351.16,316.12Z" transform="translate(-302.9 -310.23)"/><path class="cls-1" d="M355.34,317.85h0a.64.64,0,0,1,.24.88l-.78,1.35a.64.64,0,0,1-.88.24h0a.65.65,0,0,1-.24-.89l.78-1.34A.64.64,0,0,1,355.34,317.85Z" transform="translate(-302.9 -310.23)"/><path class="cls-1" d="M358.93,320.6h0a.64.64,0,0,1,0,.92l-1.1,1.1a.65.65,0,0,1-.91,0h0a.65.65,0,0,1,0-.91l1.1-1.11A.65.65,0,0,1,358.93,320.6Z" transform="translate(-302.9 -310.23)"/><path class="cls-1" d="M361.69,324.19h0a.64.64,0,0,1-.24.88l-1.35.78a.64.64,0,0,1-.88-.24h0a.64.64,0,0,1,.24-.88l1.35-.78A.65.65,0,0,1,361.69,324.19Z" transform="translate(-302.9 -310.23)"/><path class="cls-1" d="M363.42,328.38h0a.65.65,0,0,1-.46.79l-1.5.4a.65.65,0,0,1-.79-.46h0a.64.64,0,0,1,.45-.79l1.51-.4A.65.65,0,0,1,363.42,328.38Z" transform="translate(-302.9 -310.23)"/><rect class="cls-3" x="58.26" y="21.98" width="2.85" height="1.29" rx="0.65"/><path class="cls-1" d="M363.42,337.35h0a.65.65,0,0,1-.79.46l-1.51-.4a.65.65,0,0,1-.45-.8h0a.64.64,0,0,1,.79-.45l1.5.4A.65.65,0,0,1,363.42,337.35Z" transform="translate(-302.9 -310.23)"/><path class="cls-1" d="M361.69,341.53h0a.64.64,0,0,1-.88.24l-1.35-.78a.64.64,0,0,1-.24-.88h0a.64.64,0,0,1,.88-.24l1.35.78A.64.64,0,0,1,361.69,341.53Z" transform="translate(-302.9 -310.23)"/><path class="cls-1" d="M365.66,321.06l.83,1.42a2.34,2.34,0,0,1-.85,3.17h0a2.45,2.45,0,0,1-.56.23,16.73,16.73,0,0,0-1.3-2.79,17.33,17.33,0,0,0-1.76-2.51,2.19,2.19,0,0,1,.48-.37h0A2.31,2.31,0,0,1,365.66,321.06Z" transform="translate(-302.9 -310.23)"/><rect class="cls-3" x="13.42" y="6.94" width="28.85" height="2.58"/><rect class="cls-3" x="6.98" y="13.89" width="36.32" height="2.58"/><rect class="cls-3" x="0.28" y="20.85" width="43.02" height="2.58"/><rect class="cls-3" x="13.42" y="35.27" width="28.85" height="2.58"/><rect class="cls-3" x="6.98" y="28.32" width="36.32" height="2.58"/><path class="cls-2" d="M381.28,335a.5.5,0,0,1-.37-.15.49.49,0,0,1-.15-.36v-8.34a.51.51,0,0,1,.52-.52h5.55a.54.54,0,0,1,.38.14.51.51,0,0,1,0,.7.53.53,0,0,1-.38.13h-5v3.2h3.66a.46.46,0,0,1,.37.14.5.5,0,0,1,.14.35.48.48,0,0,1-.14.35.5.5,0,0,1-.37.14h-3.66v3.71a.51.51,0,0,1-.51.51Zm8.24,0a.48.48,0,0,1-.51-.51v-8.34a.48.48,0,0,1,.14-.37.5.5,0,0,1,.37-.15.51.51,0,0,1,.52.52v8.34a.5.5,0,0,1-.15.37.48.48,0,0,1-.37.14Zm2.77,0a.42.42,0,0,1-.34-.13.61.61,0,0,1-.14-.34.55.55,0,0,1,.12-.35L395,330l.47-.4,2.79-3.78a.51.51,0,0,1,.39-.17.45.45,0,0,1,.33.14.55.55,0,0,1,.14.32.62.62,0,0,1-.1.35l-2.94,4-.44.37-3,4.07a.46.46,0,0,1-.36.15Zm6.42,0a.47.47,0,0,0,.36-.13.53.53,0,0,0,.13-.34.54.54,0,0,0-.11-.35L396,330l-.37-.28-2.77-3.84a.47.47,0,0,0-.38-.17.46.46,0,0,0-.34.13.55.55,0,0,0-.14.33.5.5,0,0,0,.1.35l2.88,4,.4.3,2.93,4.05a.63.63,0,0,0,.18.15.52.52,0,0,0,.21,0Zm8.5,0a.51.51,0,0,1-.37-.15.49.49,0,0,1-.15-.36v-8.86h1v8.86a.49.49,0,0,1-.15.36.48.48,0,0,1-.37.15Zm-3.28-8.42h6.57a.46.46,0,0,0,.48-.47.45.45,0,0,0-.48-.48h-6.57a.48.48,0,0,0-.34.13.48.48,0,0,0-.14.35.45.45,0,0,0,.14.33.44.44,0,0,0,.34.14Zm8.94,8.42a.49.49,0,0,1-.37-.14.53.53,0,0,1-.14-.37v-8.34a.51.51,0,0,1,.14-.37.5.5,0,0,1,.37-.15h2.22a3.34,3.34,0,0,1,1.57.37,2.75,2.75,0,0,1,1.08,1,2.91,2.91,0,0,1,.39,1.52,2.71,2.71,0,0,1-.39,1.45,2.74,2.74,0,0,1-1.08,1,3.33,3.33,0,0,1-1.57.36h-1.7v3.13a.53.53,0,0,1-.14.37.5.5,0,0,1-.38.14Zm5,0a.48.48,0,0,0,.47-.24.53.53,0,0,0-.06-.55l-2.1-3.35-1,.27,2.26,3.61a.59.59,0,0,0,.18.2.57.57,0,0,0,.27.06Zm-4.49-4.63h1.7a2.32,2.32,0,0,0,1.05-.23,1.84,1.84,0,0,0,.73-.65,1.69,1.69,0,0,0,.26-.94,1.91,1.91,0,0,0-.26-1,1.84,1.84,0,0,0-.73-.68,2.2,2.2,0,0,0-1.05-.25h-1.7v3.77Zm6,4.63a.45.45,0,0,1-.43-.24.5.5,0,0,1,0-.5l3.48-8.28a.52.52,0,0,1,.5-.35.49.49,0,0,1,.48.35l3.49,8.29a.5.5,0,0,1,0,.5.46.46,0,0,1-.42.23.49.49,0,0,1-.29-.08.58.58,0,0,1-.21-.23l-3.19-7.82h.36l-3.24,7.82a.46.46,0,0,1-.19.24.55.55,0,0,1-.28.07Zm.75-2.18h5.61l-.4-.88h-4.82l-.39.88Zm8.67,2.18a.49.49,0,0,1-.37-.14.53.53,0,0,1-.14-.37v-8.34a.51.51,0,0,1,.14-.37.5.5,0,0,1,.37-.15h2.16a5.21,5.21,0,0,1,1.89.34,4.34,4.34,0,0,1,1.49,1,4.5,4.5,0,0,1,1,1.48,5.15,5.15,0,0,1,.33,1.88,5.21,5.21,0,0,1-.33,1.89,4.55,4.55,0,0,1-1,1.49,4.32,4.32,0,0,1-1.49,1,5,5,0,0,1-1.89.34Zm.52-.92h1.64a3.65,3.65,0,0,0,1.91-.49,3.58,3.58,0,0,0,1.29-1.33,4.34,4.34,0,0,0,0-3.89,3.51,3.51,0,0,0-1.29-1.33,3.74,3.74,0,0,0-1.91-.48h-1.64v7.52Zm8.77.92a.48.48,0,0,1-.51-.51v-8.34a.48.48,0,0,1,.14-.37.5.5,0,0,1,.37-.15h5.57a.52.52,0,0,1,.36.14.51.51,0,0,1,0,.7.52.52,0,0,1-.36.13h-5.05v3.2h3.66a.49.49,0,0,1,.37.14.46.46,0,0,1,.14.35.45.45,0,0,1-.14.35.53.53,0,0,1-.37.14h-3.66v3.25h5.05a.52.52,0,0,1,.36.14.44.44,0,0,1,.14.34.47.47,0,0,1-.14.36.52.52,0,0,1-.36.13Zm8.33,0a.48.48,0,0,1-.37-.14.5.5,0,0,1-.15-.37v-8.34a.51.51,0,0,1,.52-.52h2.22a3.37,3.37,0,0,1,1.57.37,2.75,2.75,0,0,1,1.08,1,2.91,2.91,0,0,1,.39,1.52,2.71,2.71,0,0,1-.39,1.45,2.74,2.74,0,0,1-1.08,1,3.36,3.36,0,0,1-1.57.36h-1.7v3.13a.5.5,0,0,1-.15.37.48.48,0,0,1-.37.14Zm5,0a.49.49,0,0,0,.48-.24.54.54,0,0,0-.07-.55l-2.1-3.35-1,.27,2.27,3.61a.59.59,0,0,0,.18.2.53.53,0,0,0,.26.06Zm-4.48-4.63h1.7a2.38,2.38,0,0,0,1.05-.23,1.84,1.84,0,0,0,.73-.65,1.77,1.77,0,0,0,.26-.94,2,2,0,0,0-.26-1,1.84,1.84,0,0,0-.73-.68,2.26,2.26,0,0,0-1.05-.25h-1.7Z" transform="translate(-302.9 -310.23)"/></svg>